<svg width="16" height="18" viewBox="0 0 16 18" fill="none" xmlns="http://www.w3.org/2000/svg">
<path d="M9.29905 15.7525C9.16717 15.9799 8.97787 16.1686 8.75012 16.2998C8.52237 16.431 8.26415 16.5 8.00132 16.5C7.73849 16.5 7.48027 16.431 7.25251 16.2998C7.02476 16.1686 6.83547 15.9799 6.70359 15.7525M12.5021 6.0008C12.5021 4.80711 12.0279 3.66232 11.1839 2.81825C10.3398 1.97419 9.195 1.5 8.00132 1.5C6.80763 1.5 5.66284 1.97419 4.81877 2.81825C3.97471 3.66232 3.50052 4.80711 3.50052 6.0008C3.50052 11.2517 1.25012 12.752 1.25012 12.752H14.7525C14.7525 12.752 12.5021 11.2517 12.5021 6.0008Z" stroke="#A1A1A1" stroke-width="1.58333" stroke-linecap="round" stroke-linejoin="round"/>
</svg>
