<svg width="36" height="36" viewBox="0 0 36 36" fill="none" xmlns="http://www.w3.org/2000/svg">
<path d="M18 36C27.9414 36 36 27.9414 36 18C36 8.0586 27.9414 0 18 0C8.0586 0 0 8.0586 0 18C0 27.9414 8.0586 36 18 36Z" fill="#EDF4F9"/>
<path d="M16.1458 11.718H15.2458" stroke="#3986B3" stroke-width="1.35" stroke-linecap="round" stroke-linejoin="round"/>
<path d="M10.917 22.5001C12.0711 24.01 13.6323 25.159 15.417 25.8121M20.619 25.8391C22.4048 25.1925 23.9669 24.0459 25.119 22.5361M15.219 19.1071L13.113 24.6511M20.727 19.1071L22.842 24.6601" stroke="#3986B3" stroke-width="1.08" stroke-linecap="round" stroke-linejoin="round"/>
<path d="M16.848 21.141L14.823 27.441C16.8811 28.0341 19.0649 28.0341 21.123 27.441L19.107 21.141" fill="#96C3DE"/>
<path d="M16.848 21.141L14.823 27.441C16.8811 28.0341 19.0649 28.0341 21.123 27.441L19.107 21.141" stroke="#3986B3" stroke-width="1.08" stroke-linecap="round" stroke-linejoin="round"/>
<path d="M17.046 9.8999H19.8V14.4899H16.146V10.7999C16.146 10.5612 16.2408 10.3323 16.4096 10.1635C16.5784 9.99472 16.8073 9.8999 17.046 9.8999Z" fill="#96C3DE" stroke="#3986B3" stroke-width="1.08" stroke-linecap="round" stroke-linejoin="round"/>
<path d="M14.886 14.4809L9.10802 9.8999L8.91902 12.9149C8.79035 13.945 8.84212 14.9896 9.07202 16.0019C9.42513 16.9104 10.0428 17.6921 10.8451 18.2456C11.6474 18.7992 12.5973 19.0992 13.572 19.1069H15.084" fill="#96C3DE"/>
<path d="M14.886 14.4809L9.10802 9.8999L8.91902 12.9149C8.79035 13.945 8.84212 14.9896 9.07202 16.0019C9.42513 16.9104 10.0428 17.6921 10.8451 18.2456C11.6474 18.7992 12.5973 19.0992 13.572 19.1069H15.084" stroke="#3986B3" stroke-width="1.08" stroke-linecap="round" stroke-linejoin="round"/>
<path d="M21.087 14.4809L26.865 9.8999L27.081 12.9239C27.2056 13.9515 27.1508 14.993 26.9189 16.0019C26.5658 16.9104 25.9482 17.6921 25.1459 18.2456C24.3436 18.7992 23.3937 19.0992 22.4189 19.1069H20.8979" fill="#96C3DE"/>
<path d="M21.087 14.4809L26.865 9.8999L27.081 12.9239C27.2056 13.9515 27.1508 14.993 26.9189 16.0019C26.5658 16.9104 25.9482 17.6921 25.1459 18.2456C24.3436 18.7992 23.3937 19.0992 22.4189 19.1069H20.8979" stroke="#3986B3" stroke-width="1.08" stroke-linecap="round" stroke-linejoin="round"/>
<path d="M17.982 14.4811H15.093V18.2431C15.093 19.9621 16.839 21.5371 17.982 21.5371C19.125 21.5371 20.871 19.9621 20.871 18.2431V14.4811H17.982Z" fill="#96C3DE" stroke="#3986B3" stroke-width="1.08" stroke-linecap="round" stroke-linejoin="round"/>
</svg>
