<svg width="24" height="24" viewBox="0 0 24 24" fill="none" xmlns="http://www.w3.org/2000/svg">
<path d="M4.91252 4.54285H19.0875C19.6444 4.54285 20.1 5.0057 20.1 5.57142V9.6857H3.90002V5.57142C3.90002 5.0057 4.35565 4.54285 4.91252 4.54285Z" fill="#4DC497" stroke="#4DC497" stroke-width="1.23429" stroke-linecap="round" stroke-linejoin="round"/>
<path d="M20.1 8.6571H3.90002V11.7428H20.1V8.6571Z" fill="#8DD4B6"/>
<path d="M7.95002 5.57143V3M16.05 5.57143V3M3.90002 8.65714H20.1V19.9714C20.1 20.5371 19.6444 21 19.0875 21H4.91252C4.35565 21 3.90002 20.5371 3.90002 19.9714V8.65714Z" stroke="#5A5A5A" stroke-width="1.23429" stroke-linecap="round" stroke-linejoin="round"/>
<path d="M14.8654 15.8572C14.6572 16.4599 14.2694 16.9818 13.7559 17.3504C13.2425 17.7191 12.6287 17.9162 12 17.9143C11.2204 17.9143 10.5116 17.616 9.97498 17.1326" stroke="#5A5A5A" stroke-width="1.23429" stroke-linecap="round" stroke-linejoin="round"/>
<path d="M13.5188 15.3428H15.0375L15.8576 16.8857M9.13464 13.7999C9.54977 12.5965 10.6736 11.7428 12 11.7428C12.7796 11.7428 13.4884 12.0411 14.025 12.5245" stroke="#5A5A5A" stroke-width="1.23429" stroke-linecap="round" stroke-linejoin="round"/>
<path d="M10.4801 14.3143H8.96136L8.14124 12.7715" stroke="#5A5A5A" stroke-width="1.23429" stroke-linecap="round" stroke-linejoin="round"/>
</svg>
