<svg width="36" height="36" viewBox="0 0 36 36" fill="none" xmlns="http://www.w3.org/2000/svg">
<g clip-path="url(#clip0_1_661)">
<mask id="mask0_1_661" style="mask-type:luminance" maskUnits="userSpaceOnUse" x="0" y="0" width="36" height="36">
<path d="M0 0H36V36H0V0Z" fill="white"/>
</mask>
<g mask="url(#mask0_1_661)">
<path d="M18 36C27.9407 36 36 27.9407 36 18C36 8.05832 27.9407 0 18 0C8.05926 0 0 8.05832 0 18C0 27.9407 8.05926 36 18 36Z" fill="#EBF8F3"/>
<path d="M26.5264 18.6168C26.5262 19.7058 26.2956 20.7825 25.8498 21.7761C25.4039 22.7697 24.753 23.6578 23.9396 24.382C23.1262 25.1062 22.1688 25.6501 21.1303 25.978C20.0918 26.306 18.9956 26.4105 17.9139 26.2848C14.3451 25.8888 11.4613 22.9377 11.1241 19.369C11.0143 18.2471 11.1517 17.1149 11.5265 16.0518C11.9013 14.9888 12.5045 14.0207 13.2935 13.2158C14.3167 12.1737 16.1584 12.5602 16.544 13.968C16.7372 14.6624 17.1124 15.3474 17.7206 15.9547C18.2417 16.4852 18.9171 16.8613 19.64 17.0347C21.5214 17.4894 23.2665 16.7362 24.2413 15.3862C24.6847 14.778 25.6103 14.9031 25.9087 15.5984C26.3047 16.524 26.5169 17.5368 26.5169 18.6073L26.5264 18.6168Z" fill="#90DEC0" stroke="#00AB6B" stroke-width="1.42105" stroke-linecap="round" stroke-linejoin="round"/>
<path d="M18.2993 19.2723C19.2936 19.6129 20.3525 19.7221 21.3953 19.5916" stroke="#00AB6B" stroke-width="1.42105" stroke-linecap="round" stroke-linejoin="round"/>
<path d="M14.47 16.6879C14.7258 16.6879 14.9711 16.5863 15.152 16.4054C15.3328 16.2245 15.4345 15.9792 15.4345 15.7235C15.4345 15.4677 15.3328 15.2224 15.152 15.0415C14.9711 14.8606 14.7258 14.759 14.47 14.759C14.2143 14.759 13.969 14.8606 13.7881 15.0415C13.6072 15.2224 13.5056 15.4677 13.5056 15.7235C13.5056 15.9792 13.6072 16.2245 13.7881 16.4054C13.969 16.5863 14.2143 16.6879 14.47 16.6879Z" fill="#00AB6B"/>
<path d="M11.6526 15.7234H10.1292M11.249 17.0744L9.47363 19.5518" stroke="#00AB6B" stroke-width="1.42105" stroke-linecap="round" stroke-linejoin="round"/>
<path d="M18.2606 12.6086C18.2606 13.5247 17.5955 14.2864 16.7268 14.4408C16.6562 14.2849 16.5983 14.1237 16.5534 13.9586C16.1678 12.5404 14.3252 12.1548 13.2935 13.2064L13.2158 13.2831C12.8486 13.1599 12.5296 12.9238 12.3045 12.6086C12.0794 12.2933 11.9597 11.915 11.9624 11.5276C11.9624 10.5054 12.7923 9.66699 13.8146 9.66699C14.6435 9.66699 15.3379 10.207 15.57 10.9497C15.8201 10.8143 16.1006 10.747 16.399 10.747C17.4221 10.747 18.2606 11.5864 18.2606 12.6086Z" fill="#90DEC0" stroke="#00AB6B" stroke-width="1.42105" stroke-linecap="round" stroke-linejoin="round"/>
<path d="M22.6496 21.8965C22.1996 22.3698 21.648 22.7346 21.0363 22.9634C20.4246 23.1922 19.7689 23.279 19.1188 23.2171C18.4466 23.1521 17.7984 22.9329 17.2246 22.5767C16.6509 22.2205 16.167 21.7368 15.8105 21.1632" stroke="#00AB6B" stroke-width="1.42105" stroke-linecap="round" stroke-linejoin="round"/>
</g>
</g>
<defs>
<clipPath id="clip0_1_661">
<rect width="36" height="36" fill="white"/>
</clipPath>
</defs>
</svg>
