<svg width="37" height="36" viewBox="0 0 37 36" fill="none" xmlns="http://www.w3.org/2000/svg">
<mask id="mask0_2147_752" style="mask-type:luminance" maskUnits="userSpaceOnUse" x="0" y="0" width="37" height="36">
<path d="M0.600098 0H36.6001V36H0.600098V0Z" fill="white"/>
</mask>
<g mask="url(#mask0_2147_752)">
<path d="M18.6001 36C28.5361 36 36.6001 27.936 36.6001 18C36.6001 8.064 28.5361 0 18.6001 0C8.6641 0 0.600098 8.064 0.600098 18C0.600098 27.936 8.6641 36 18.6001 36Z" fill="#EBEEF5"/>
<path d="M27.7026 16.2315H10.3965L10.275 14.1633L19.041 9L27.8241 14.1633L27.7026 16.2315Z" fill="#A5B2CF" stroke="#3B5997" stroke-width="1.08" stroke-linecap="round" stroke-linejoin="round"/>
<path d="M19.0304 13.7052C19.3207 13.7052 19.5991 13.5899 19.8043 13.3846C20.0095 13.1794 20.1248 12.901 20.1248 12.6108C20.1248 12.3205 20.0095 12.0421 19.8043 11.8369C19.5991 11.6317 19.3207 11.5164 19.0304 11.5164C18.7402 11.5164 18.4618 11.6317 18.2566 11.8369C18.0513 12.0421 17.936 12.3205 17.936 12.6108C17.936 12.901 18.0513 13.1794 18.2566 13.3846C18.4618 13.5899 18.7402 13.7052 19.0304 13.7052Z" fill="#A5B2CF" stroke="#3B5997" stroke-width="0.9" stroke-miterlimit="10"/>
<path d="M12.5953 23.742V18.0828M19.0501 18.0828V23.7429M25.5049 18.0828V23.7429M11.6044 18.0828H13.5871M18.0583 18.0828H20.0419M24.5131 18.0828H26.4967M11.6044 23.742H13.5871M18.0583 23.742H20.0419M24.5131 23.742H26.4967" stroke="#3B5997" stroke-width="1.08" stroke-linecap="round" stroke-linejoin="round"/>
<path d="M27.8241 26.1H10.275L11.0607 23.229H27.0384L27.8241 26.1Z" fill="#A5B2CF" stroke="#3B5997" stroke-width="1.08" stroke-linecap="round" stroke-linejoin="round"/>
</g>
</svg>
