<svg width="24" height="24" viewBox="0 0 24 24" fill="none" xmlns="http://www.w3.org/2000/svg">
<path d="M11.999 7.80967C11.999 7.80967 11.999 4.76622 14.999 3.2445C18.0001 1.72174 19.5001 7.80967 11.999 7.80967Z" stroke="#4DC497" stroke-width="1.25245" stroke-miterlimit="22.93"/>
<path d="M12.0001 7.80967C12.0001 7.80967 12.0001 4.76622 9.0001 3.2445C5.99906 1.72174 4.49906 7.80967 12.0001 7.80967Z" stroke="#4DC497" stroke-width="1.25245" stroke-miterlimit="22.93"/>
<path d="M4.99898 7.81067H4C3.73504 7.81149 3.48115 7.91864 3.29379 8.10872C3.10643 8.29879 3.00081 8.55635 3 8.82515V10.8541C3 11.4125 3.44959 11.8686 4 11.8686H12.0011V7.81067H4.99898Z" stroke="#5A5A5A" stroke-width="1.25245" stroke-linecap="round" stroke-linejoin="round"/>
<path fill-rule="evenodd" clip-rule="evenodd" d="M20.0001 7.81067H11.999V11.8686H20.0001C20.265 11.8678 20.5189 11.7606 20.7063 11.5705C20.8936 11.3805 20.9993 11.1229 21.0001 10.8541V8.82515C20.9993 8.55635 20.8936 8.29879 20.7063 8.10872C20.5189 7.91864 20.265 7.81149 20.0001 7.81067ZM19.0001 19.9855V11.8686H11.999V21H18.0001C18.2652 20.9991 18.5193 20.8918 18.7066 20.7015C18.894 20.5112 18.9995 20.2545 19.0001 19.9855Z" fill="#8DD4B6"/>
<path d="M11.999 11.8686V7.81067H20C20.265 7.81149 20.5189 7.91864 20.7062 8.10872C20.8936 8.29879 20.9992 8.55635 21 8.82515V10.8541C20.9992 11.1229 20.8936 11.3805 20.7062 11.5705C20.5189 11.7606 20.265 11.8678 20 11.8686H11.999ZM11.999 11.8686H19V19.9855C18.9995 20.2545 18.894 20.5112 18.7066 20.7015C18.5192 20.8918 18.2652 20.9991 18 21H11.999M11.999 11.8686V21M11.999 21H5.99793C5.44854 21 4.99792 20.5428 4.99792 19.9855V11.8686V11.8675H11.999V21Z" stroke="#5A5A5A" stroke-width="1.25245" stroke-linecap="round" stroke-linejoin="round"/>
<path d="M10 7.81074V21H14V7.80969L10 7.81074Z" fill="#4DC497" stroke="#4DC497" stroke-width="1.25245" stroke-linecap="round" stroke-linejoin="round"/>
<path d="M10 7.80969V21H14V7.80969H10Z" stroke="#5A5A5A" stroke-width="1.25245" stroke-linecap="round" stroke-linejoin="round"/>
</svg>
