<svg width="15" height="16" viewBox="0 0 15 16" fill="none" xmlns="http://www.w3.org/2000/svg">
<path d="M4.31893 3.37227C4.54761 2.97682 4.92401 2.6884 5.36533 2.57047L10.0711 1.30876C10.2897 1.25016 10.5177 1.2352 10.742 1.26474C10.9663 1.29427 11.1827 1.36773 11.3786 1.4809C11.5746 1.59407 11.7463 1.74474 11.884 1.9243C12.0217 2.10387 12.1227 2.3088 12.1811 2.5274L13.4411 7.23319C13.5592 7.6743 13.4972 8.14423 13.2689 8.53968L10.1814 13.8888C9.95294 14.2844 9.57672 14.5731 9.13547 14.6913C8.69422 14.8095 8.22408 14.7476 7.82846 14.5192L1.86183 11.0743C1.66587 10.9613 1.4941 10.8107 1.35632 10.6313C1.21855 10.4519 1.11746 10.2471 1.05884 10.0286C1.00022 9.81012 0.985209 9.58222 1.01467 9.35793C1.04413 9.13364 1.11749 8.91734 1.23054 8.7214L4.31893 3.37227Z" stroke="#22A271" stroke-width="1.29185"/>
<path d="M6.36789 6.71475C6.77982 6.95257 7.30654 6.81144 7.54436 6.39951C7.78218 5.98759 7.64105 5.46087 7.22913 5.22304C6.81721 4.98522 6.29048 5.12636 6.05266 5.53828C5.81484 5.9502 5.95597 6.47692 6.36789 6.71475Z" fill="#22A271"/>
<path d="M7.62863 11.4205C8.04056 11.6584 8.56728 11.5172 8.8051 11.1053C9.04293 10.6934 8.90179 10.1667 8.48987 9.92883C8.07795 9.69101 7.55122 9.83214 7.3134 10.2441C7.07558 10.656 7.21671 11.1827 7.62863 11.4205Z" fill="#22A271"/>
<path d="M9.78184 7.69136L5.07605 8.95221" stroke="#22A271" stroke-width="1.29185" stroke-linecap="round"/>
</svg>
