<svg width="16" height="15" viewBox="0 0 16 15" fill="none" xmlns="http://www.w3.org/2000/svg">
<path d="M7.99683 7.79999C3.33067 7.79999 1.56745 11.3827 1.25062 13.6565C1.24918 13.6682 1.25025 13.6802 1.25376 13.6915C1.25727 13.7028 1.26314 13.7132 1.27098 13.7221C1.27881 13.7309 1.28844 13.738 1.29921 13.7428C1.30997 13.7476 1.32164 13.7501 1.33342 13.75H14.6653C14.6768 13.7502 14.6883 13.7481 14.6989 13.7436C14.7096 13.7392 14.7192 13.7326 14.7272 13.7241C14.7351 13.7157 14.7412 13.7058 14.7451 13.6948C14.749 13.6839 14.7506 13.6723 14.7498 13.6607C14.5648 11.3878 12.6664 7.79999 7.99683 7.79999ZM3.77253 1.425C3.77253 1.31228 3.81703 1.20418 3.89626 1.12448C3.97548 1.04478 4.08292 1 4.19496 1H7.05819L7.99598 1.4726L8.93546 1H11.7987C11.9107 1 12.0182 1.04478 12.0974 1.12448C12.1766 1.20418 12.2211 1.31228 12.2211 1.425V5.29759C12.2211 5.41031 12.1766 5.51841 12.0974 5.59811C12.0182 5.67781 11.9107 5.72259 11.7987 5.72259H4.19496C4.08292 5.72259 3.97548 5.67781 3.89626 5.59811C3.81703 5.51841 3.77253 5.41031 3.77253 5.29759V1.425Z" stroke="#22A271" stroke-width="1.26729"/>
<path d="M9.07651 4.07278C9.4806 4.3075 9.99731 4.1682 10.2306 3.76166C10.4639 3.35511 10.3255 2.83526 9.92137 2.60054C9.51728 2.36582 9.00057 2.50511 8.76727 2.91166C8.53397 3.31821 8.67242 3.83806 9.07651 4.07278Z" fill="#22A271"/>
<path d="M6.07224 4.07278C6.47633 4.3075 6.99303 4.1682 7.22633 3.76166C7.45964 3.35511 7.32118 2.83526 6.91709 2.60054C6.513 2.36582 5.9963 2.50511 5.763 2.91166C5.52969 3.31821 5.66815 3.83806 6.07224 4.07278Z" fill="#22A271"/>
</svg>
