<svg width="20" height="21" viewBox="0 0 20 21" fill="none" xmlns="http://www.w3.org/2000/svg">
<path d="M0 10.5C0 2.26273 1.76273 0.5 10 0.5C18.2373 0.5 20 2.26273 20 10.5C20 18.7373 18.2373 20.5 10 20.5C1.76273 20.5 0 18.7373 0 10.5Z" fill="#E5F7F0"/>
<path d="M12.7273 9.59091C13.7314 9.59091 14.5455 8.77688 14.5455 7.77273C14.5455 6.76857 13.7314 5.95455 12.7273 5.95455C11.7231 5.95455 10.9091 6.76857 10.9091 7.77273C10.9091 8.77688 11.7231 9.59091 12.7273 9.59091Z" fill="#00BE78"/>
<path d="M7.27273 9.59091C8.27688 9.59091 9.09091 8.77688 9.09091 7.77273C9.09091 6.76857 8.27688 5.95455 7.27273 5.95455C6.26857 5.95455 5.45455 6.76857 5.45455 7.77273C5.45455 8.77688 6.26857 9.59091 7.27273 9.59091Z" fill="#00BE78"/>
<path d="M12.7273 15.0455C13.7314 15.0455 14.5455 14.2314 14.5455 13.2273C14.5455 12.2231 13.7314 11.4091 12.7273 11.4091C11.7231 11.4091 10.9091 12.2231 10.9091 13.2273C10.9091 14.2314 11.7231 15.0455 12.7273 15.0455Z" fill="#00BE78"/>
<path d="M7.27273 15.0455C8.27688 15.0455 9.09091 14.2314 9.09091 13.2273C9.09091 12.2231 8.27688 11.4091 7.27273 11.4091C6.26857 11.4091 5.45455 12.2231 5.45455 13.2273C5.45455 14.2314 6.26857 15.0455 7.27273 15.0455Z" fill="#00BE78"/>
</svg>
