<svg width="19" height="12" viewBox="0 0 19 12" fill="none" xmlns="http://www.w3.org/2000/svg">
<path d="M11.2667 0.15686L9.48768 2.52563H16.6034V9.63195H2.37192V2.52563H9.48768L7.70862 0.15686H2.37192C1.74285 0.15686 1.13954 0.406427 0.69472 0.850658C0.249898 1.29489 0 1.8974 0 2.52563L0 9.63195C0 10.2602 0.249898 10.8627 0.69472 11.3069C1.13954 11.7512 1.74285 12.0007 2.37192 12.0007H16.6034C17.2325 12.0007 17.8358 11.7512 18.2806 11.3069C18.7255 10.8627 18.9754 10.2602 18.9754 9.63195V2.52563C18.9754 1.8974 18.7255 1.29489 18.2806 0.850658C17.8358 0.406427 17.2325 0.15686 16.6034 0.15686H11.2667Z" fill="#1AA86E"/>
</svg>
