<svg width="18" height="18" viewBox="0 0 18 18" fill="none" xmlns="http://www.w3.org/2000/svg">
<path d="M3.2251 15.75H14.7001M8.9626 13.5804C8.9626 10.1764 11.4584 8.33464 14.7001 7.86214M3.2251 5.93357C6.46679 6.40607 8.9626 9.21214 8.9626 12.6161V15.75M12.5963 2.25H13.9351V2.73214C13.9351 4.86321 12.2234 6.58929 10.1101 6.58929H8.77135V6.10714C8.77135 3.97607 10.483 2.25 12.5963 2.25ZM5.1376 8.27679H6.57197V9.72321C6.57197 10.7839 5.71135 11.6518 4.65947 11.6518H3.2251V10.2054C3.2251 9.14464 4.08572 8.27679 5.1376 8.27679ZM14.7001 13.5804H13.2657C12.2138 13.5804 11.3532 12.7125 11.3532 11.6518V10.2054H12.7876C13.8395 10.2054 14.7001 11.0732 14.7001 12.1339V13.5804Z" stroke="#22A271" stroke-width="1.35" stroke-linecap="round" stroke-linejoin="round"/>
</svg>
