<svg width="42" height="46" viewBox="0 0 42 46" fill="none" xmlns="http://www.w3.org/2000/svg">
<g clip-path="url(#clip0_1_704)">
<path d="M1.29805 27.3269C1.53702 27.3269 1.73074 27.1332 1.73074 26.8942C1.73074 26.6553 1.53702 26.4615 1.29805 26.4615C1.05908 26.4615 0.865356 26.6553 0.865356 26.8942C0.865356 27.1332 1.05908 27.3269 1.29805 27.3269Z" fill="#00AB6B"/>
<path d="M3.89424 14.3462C4.13321 14.3462 4.32693 14.1524 4.32693 13.9135C4.32693 13.6745 4.13321 13.4808 3.89424 13.4808C3.65527 13.4808 3.46155 13.6745 3.46155 13.9135C3.46155 14.1524 3.65527 14.3462 3.89424 14.3462Z" fill="#00AB6B"/>
<path d="M24.6634 3.09615C25.3803 3.09615 25.9615 2.51499 25.9615 1.79808C25.9615 1.08117 25.3803 0.5 24.6634 0.5C23.9465 0.5 23.3654 1.08117 23.3654 1.79808C23.3654 2.51499 23.9465 3.09615 24.6634 3.09615Z" fill="#00AB6B"/>
<path d="M37.6442 16.0769C37.8832 16.0769 38.0769 15.8832 38.0769 15.6442C38.0769 15.4053 37.8832 15.2115 37.6442 15.2115C37.4053 15.2115 37.2115 15.4053 37.2115 15.6442C37.2115 15.8832 37.4053 16.0769 37.6442 16.0769Z" fill="#00AB6B"/>
<path d="M38.5096 25.5962C38.7486 25.5962 38.9423 25.4024 38.9423 25.1635C38.9423 24.9245 38.7486 24.7308 38.5096 24.7308C38.2706 24.7308 38.0769 24.9245 38.0769 25.1635C38.0769 25.4024 38.2706 25.5962 38.5096 25.5962Z" fill="#00AB6B"/>
<path d="M1.29808 35.1154C2.01499 35.1154 2.59615 34.5342 2.59615 33.8173C2.59615 33.1004 2.01499 32.5192 1.29808 32.5192C0.581169 32.5192 0 33.1004 0 33.8173C0 34.5342 0.581169 35.1154 1.29808 35.1154Z" fill="#00AB6B"/>
<path d="M5.19229 8.28845C5.67023 8.28845 6.05767 7.901 6.05767 7.42306C6.05767 6.94512 5.67023 6.55768 5.19229 6.55768C4.71435 6.55768 4.3269 6.94512 4.3269 7.42306C4.3269 7.901 4.71435 8.28845 5.19229 8.28845Z" fill="#00AB6B"/>
<path d="M18.1731 4.8269C18.6511 4.8269 19.0385 4.43945 19.0385 3.96152C19.0385 3.48358 18.6511 3.09613 18.1731 3.09613C17.6952 3.09613 17.3077 3.48358 17.3077 3.96152C17.3077 4.43945 17.6952 4.8269 18.1731 4.8269Z" fill="#00AB6B"/>
<path d="M36.3461 10.0192C36.824 10.0192 37.2115 9.63178 37.2115 9.15384C37.2115 8.6759 36.824 8.28845 36.3461 8.28845C35.8682 8.28845 35.4807 8.6759 35.4807 9.15384C35.4807 9.63178 35.8682 10.0192 36.3461 10.0192Z" fill="#00AB6B"/>
<path d="M40.6731 31.6539C41.1511 31.6539 41.5385 31.2664 41.5385 30.7885C41.5385 30.3105 41.1511 29.9231 40.6731 29.9231C40.1952 29.9231 39.8077 30.3105 39.8077 30.7885C39.8077 31.2664 40.1952 31.6539 40.6731 31.6539Z" fill="#00AB6B"/>
<path d="M23.3654 45.5C23.8433 45.5 24.2308 45.1125 24.2308 44.6346C24.2308 44.1567 23.8433 43.7692 23.3654 43.7692C22.8874 43.7692 22.5 44.1567 22.5 44.6346C22.5 45.1125 22.8874 45.5 23.3654 45.5Z" fill="#00AB6B"/>
<path d="M17.7404 42.0385C17.9794 42.0385 18.1731 41.8448 18.1731 41.6058C18.1731 41.3668 17.9794 41.1731 17.7404 41.1731C17.5015 41.1731 17.3077 41.3668 17.3077 41.6058C17.3077 41.8448 17.5015 42.0385 17.7404 42.0385Z" fill="#00AB6B"/>
<path fill-rule="evenodd" clip-rule="evenodd" d="M20.7692 9.15387C28.4162 9.15387 34.6154 15.3531 34.6154 23C34.6154 30.647 28.4162 36.8462 20.7692 36.8462C13.1223 36.8462 6.9231 30.647 6.9231 23C6.9231 15.3531 13.1223 9.15387 20.7692 9.15387Z" fill="#E6F7F0"/>
<path fill-rule="evenodd" clip-rule="evenodd" d="M20.7692 10.8846C27.4603 10.8846 32.8846 16.3089 32.8846 23C32.8846 29.6912 27.4603 35.1154 20.7692 35.1154C14.078 35.1154 8.65381 29.6912 8.65381 23C8.65381 16.3089 14.078 10.8846 20.7692 10.8846Z" fill="#C6EADB"/>
<path fill-rule="evenodd" clip-rule="evenodd" d="M20.7692 14.3461C25.5485 14.3461 29.423 18.2206 29.423 23C29.423 27.7793 25.5485 31.6538 20.7692 31.6538C15.9899 31.6538 12.1154 27.7793 12.1154 23C12.1154 18.2206 15.9899 14.3461 20.7692 14.3461Z" fill="#E6F7F0" stroke="#00AB6B" stroke-width="1.29808" stroke-linecap="round" stroke-linejoin="round"/>
<path fill-rule="evenodd" clip-rule="evenodd" d="M23.4088 23.4041C22.7779 24.0843 21.061 25.2352 20.1826 25.6047C20.0424 25.6636 19.685 25.7882 19.608 25.7899C19.4444 25.7951 19.2869 25.7034 19.2108 25.5563C19.1814 25.4992 19.0948 25.1262 19.0671 24.96C18.9849 24.4546 18.9425 23.6697 18.9434 22.8805C18.9425 22.0523 18.9884 21.2302 19.0801 20.73C19.1043 20.595 19.1753 20.2844 19.1961 20.2342C19.235 20.1407 19.306 20.0671 19.3916 20.0213C19.4574 19.9858 19.5327 19.9668 19.608 19.9694C19.685 19.9711 19.9983 20.081 20.1056 20.1234C20.9519 20.4522 22.7424 21.6447 23.4001 22.3457C23.4589 22.4089 23.6208 22.5785 23.6476 22.6131C23.709 22.691 23.7393 22.7853 23.7393 22.8805C23.7393 22.9688 23.7125 23.0588 23.6571 23.1341C23.6286 23.173 23.4633 23.3461 23.4088 23.4041Z" fill="#00AB6B" stroke="#00AB6B" stroke-width="1.29808" stroke-linecap="round" stroke-linejoin="round"/>
</g>
<defs>
<clipPath id="clip0_1_704">
<rect width="41.5385" height="45" fill="white" transform="translate(0 0.5)"/>
</clipPath>
</defs>
</svg>
