<svg width="19" height="20" viewBox="0 0 19 20" fill="none" xmlns="http://www.w3.org/2000/svg">
<path fill-rule="evenodd" clip-rule="evenodd" d="M18.0629 10.472H8.22253L10.1529 0.763952C10.2659 0.214621 10.8215 -0.126343 11.3583 0.0441392C15.4922 1.30381 18.5714 4.96917 18.9951 9.42065C19.0516 9.97945 18.609 10.472 18.0535 10.472H18.0629Z" fill="#4DC497"/>
<path fill-rule="evenodd" clip-rule="evenodd" d="M17.6967 10.472C17.6967 15.738 13.4592 20 8.22356 20C5.98241 20 3.92959 19.2139 2.30993 17.9069C1.86735 17.5565 1.8391 16.8935 2.2346 16.4862L8.22356 10.4625H17.6967V10.472Z" fill="#8DD4B6"/>
<path d="M8.22254 17.7364C10.1381 17.7364 11.9752 16.971 13.3296 15.6087C14.6841 14.2463 15.4451 12.3986 15.4451 10.4719C15.4451 8.5453 14.6841 6.69756 13.3296 5.33522C11.9752 3.97288 10.1381 3.20752 8.22254 3.20752C6.307 3.20752 4.46992 3.97288 3.11543 5.33522C1.76094 6.69756 1 8.5453 1 10.4719C1 12.3986 1.76094 14.2463 3.11543 15.6087C4.46992 16.971 6.307 17.7364 8.22254 17.7364Z" stroke="#5A5A5A" stroke-width="1.13655" stroke-linecap="round" stroke-linejoin="round"/>
<path d="M10.0776 1.1239L8.22253 10.472H17.6956" stroke="#5A5A5A" stroke-width="1.13655" stroke-linecap="round" stroke-linejoin="round"/>
</svg>
