<svg width="36" height="36" viewBox="0 0 36 36" fill="none" xmlns="http://www.w3.org/2000/svg">
<mask id="mask0_2169_527" style="mask-type:luminance" maskUnits="userSpaceOnUse" x="0" y="0" width="36" height="36">
<path d="M36 0H0V36H36V0Z" fill="white"/>
</mask>
<g mask="url(#mask0_2169_527)">
<path d="M18 36C27.9411 36 36 27.9411 36 18C36 8.05887 27.9411 0 18 0C8.05887 0 0 8.05887 0 18C0 27.9411 8.05887 36 18 36Z" fill="#E8797E"/>
<path d="M2.22021 26.6799C5.30021 32.24 11.2002 36 18.0002 36C27.9402 36 36.0002 27.9399 36.0002 18C36.0002 14.2 34.8202 10.6599 32.8002 7.73996C26.6202 18.4999 15.3203 25.92 2.22021 26.6799Z" fill="#A31A21"/>
<path d="M11 4.26C21.0201 4.26 29.96 8.82 35.88 15.96C34.8801 6.98 27.26 0 18 0C13.34 0 9.10001 1.76 5.90002 4.68C7.56003 4.4 9.28001 4.26 11 4.26Z" fill="#E8797E"/>
<path d="M2.22021 26.6799C2.72021 27.5799 3.28021 28.42 3.92022 29.2199C6.28021 29.62 8.70022 29.8399 11.1803 29.8399C20.2202 29.8399 28.6202 27.02 35.5002 22.1999C35.8202 20.86 36.0002 19.44 36.0002 18C36.0002 14.2 34.8202 10.6599 32.8002 7.73996C26.6202 18.4999 15.3203 25.92 2.22021 26.6799Z" fill="#F7D2D4"/>
<path d="M8.21969 9.93996C18.4997 9.93996 28.0397 13.0399 35.9996 18.3399C35.9996 18.22 35.9996 18.1 35.9996 17.9999C35.9996 17.32 35.9597 16.6399 35.8797 15.9799C29.9597 8.81994 21.0197 4.25995 10.9997 4.25995C9.25966 4.25995 7.55968 4.39994 5.87969 4.65994C4.11969 6.25995 2.69968 8.17994 1.67969 10.3399C3.83969 10.0799 5.99969 9.93996 8.21969 9.93996Z" fill="#A31A21"/>
<path d="M0.16 15.64C0.06 16.4001 0 17.2 0 18C0 27.94 8.06 36 18 36C22.46 36 26.54 34.38 29.68 31.7001C16.68 31.6 5.48 25.08 0.16 15.64Z" fill="#E04D53"/>
<path d="M11 4.25995C9.26001 4.25995 7.56 4.39994 5.88 4.65994C2.28 7.95995 0 12.72 0 17.9999C0 22.1199 1.38 25.8999 3.7 28.9399C8.1 21.7799 16 17.02 25.02 17.02C28.94 17.02 32.64 17.92 35.94 19.5199C35.98 19.02 36 18.5199 36 17.9999C36 17.32 35.96 16.6399 35.88 15.9799C29.96 8.81994 21.02 4.25995 11 4.25995Z" fill="#D82028"/>
</g>
</svg>
