<svg width="37" height="36" viewBox="0 0 37 36" fill="none" xmlns="http://www.w3.org/2000/svg">
<mask id="mask0_2147_163" style="mask-type:luminance" maskUnits="userSpaceOnUse" x="0" y="0" width="37" height="36">
<path d="M0.199951 0H36.2V36H0.199951V0Z" fill="white"/>
</mask>
<g mask="url(#mask0_2147_163)">
<path d="M18.2 36C28.1414 36 36.2 27.9414 36.2 18C36.2 8.0586 28.1414 0 18.2 0C8.25855 0 0.199951 8.0586 0.199951 18C0.199951 27.9414 8.25855 36 18.2 36Z" fill="#F2F1FE"/>
<path d="M15.4999 15.201H11.8999C11.6612 15.201 11.4323 15.2959 11.2635 15.4647C11.0947 15.6334 10.9999 15.8624 10.9999 16.101V21.8971C10.9999 22.1357 11.0947 22.3647 11.2635 22.5334C11.4323 22.7022 11.6612 22.7971 11.8999 22.7971H15.4999C15.7386 22.7971 15.9675 22.7022 16.1363 22.5334C16.3051 22.3647 16.3999 22.1357 16.3999 21.8971V16.101C16.3999 15.8624 16.3051 15.6334 16.1363 15.4647C15.9675 15.2959 15.7386 15.201 15.4999 15.201Z" fill="#BFBAF9" stroke="#766BF3" stroke-width="1.08" stroke-linecap="round" stroke-linejoin="round"/>
<path d="M13.7 11.4031V15.2011M13.7 22.7971V26.3971" stroke="#766BF3" stroke-width="1.08" stroke-linecap="round" stroke-linejoin="round"/>
<path d="M20.9 23.4001H24.5C24.7387 23.4001 24.9676 23.3053 25.1364 23.1365C25.3052 22.9677 25.4 22.7388 25.4 22.5001V13.5001C25.4 13.2614 25.3052 13.0325 25.1364 12.8637C24.9676 12.6949 24.7387 12.6001 24.5 12.6001H20.9C20.6613 12.6001 20.4324 12.6949 20.2636 12.8637C20.0948 13.0325 20 13.2614 20 13.5001V22.5001C20 22.7388 20.0948 22.9677 20.2636 23.1365C20.4324 23.3053 20.6613 23.4001 20.9 23.4001Z" fill="#BFBAF9" stroke="#766BF3" stroke-width="1.08" stroke-linecap="round" stroke-linejoin="round"/>
<path d="M22.7 9V12.6M22.7 23.4V27" stroke="#766BF3" stroke-width="1.08" stroke-linecap="round" stroke-linejoin="round"/>
</g>
</svg>
